<svg xmlns="http://www.w3.org/2000/svg" viewBox="0 0 547.66 417.64"><defs><style>.cls-1{fill:#8ad2d8;}</style></defs><g id="Layer_2" data-name="Layer 2"><g id="Layer_1-2" data-name="Layer 1"><path class="cls-1" d="M360,186c-.76-1.54-1.56-3-2.38-4.4-15.41-26.22-37.22-21-59.6-41.43C258.67,104.31,282.45,48.46,258,39,227.49,27.13,154.38,99.59,166,130.85c9.18,24.62,63,2.44,99.29,42.06,20.56,22.42,16.23,43.59,42.46,58.62l.29.17Z"/><path class="cls-1" d="M249.81,122.82a72.64,72.64,0,0,0,0-102.75c-.28-.28-.58-.58-.92-.9-20.56-19.64-69.67-31.24-101.82.9-28.07,28.06-28.26,74.49,0,102.75A72.65,72.65,0,0,0,249.81,122.82Z"/><circle class="cls-1" cx="325.78" cy="198.78" r="37.66" transform="translate(-45.14 288.58) rotate(-45)"/><path class="cls-1" d="M234.07,312c-.76-1.53-1.55-3-2.37-4.4-15.41-26.22-37.22-21-59.61-41.43C132.73,230.25,156.5,174.41,132,164.91c-30.47-11.83-103.59,60.62-91.93,91.89,9.18,24.61,63,2.44,99.29,42.06,20.55,22.42,16.23,43.58,42.46,58.62l.29.16Z"/><path class="cls-1" d="M123.87,248.76a72.65,72.65,0,0,0,0-102.74l-.92-.91c-20.57-19.63-69.67-31.24-101.83.91-28.06,28-28.26,74.49,0,102.74A72.64,72.64,0,0,0,123.87,248.76Z"/><circle class="cls-1" cx="199.83" cy="324.73" r="37.66" transform="translate(-171.09 236.42) rotate(-45)"/><path class="cls-1" d="M185.87,231.63c.76,1.53,1.55,3,2.37,4.39,15.41,26.22,37.22,21,59.61,41.44,39.36,35.87,15.59,91.72,40.07,101.22,30.47,11.83,103.59-60.62,91.93-91.89-9.18-24.62-63-2.44-99.29-42.06-20.56-22.42-16.23-43.58-42.46-58.62l-.29-.17Z"/><path class="cls-1" d="M296.07,294.82a72.66,72.66,0,0,0,0,102.75l.92.91c20.57,19.63,69.67,31.24,101.83-.91,28.06-28.05,28.26-74.49,0-102.75A72.66,72.66,0,0,0,296.07,294.82Z"/><circle class="cls-1" cx="220.1" cy="218.86" r="37.66" transform="translate(-90.29 219.74) rotate(-45)"/><path class="cls-1" d="M313.59,103.91c.76,1.53,1.55,3,2.37,4.39,15.42,26.22,37.22,21,59.61,41.43,39.37,35.88,15.59,91.73,40.07,101.23,30.48,11.83,103.59-60.63,91.93-91.89-9.17-24.62-62.95-2.44-99.28-42.06-20.56-22.42-16.24-43.58-42.46-58.62l-.29-.17Z"/><path class="cls-1" d="M423.79,167.1a72.66,72.66,0,0,0,0,102.75c.29.28.58.58.92.9,20.57,19.64,69.68,31.24,101.83-.9,28.07-28.06,28.26-74.49,0-102.75A72.66,72.66,0,0,0,423.79,167.1Z"/><circle class="cls-1" cx="347.83" cy="91.14" r="37.66" transform="translate(37.43 272.64) rotate(-45)"/></g></g></svg>