<svg xmlns="http://www.w3.org/2000/svg" viewBox="0 0 777.28 416.57"><defs><style>.cls-1{fill:#8ad2d8;}</style></defs><g id="Layer_2" data-name="Layer 2"><g id="Layer_1-2" data-name="Layer 1"><path class="cls-1" d="M377.14,185.29c-2.29-.38-4.55-.71-6.74-1-41.44-5.28-58,7.92-100.57,8.89C194.93,194.9,163,156,129.19,163.28c-42.11,9.12-42.77,80.32,0,89.91,33.63,7.56,65.09-29.6,140.69-28,42.78.91,59.53,13.38,100.61,7.91l.45-.06Z"/><path class="cls-1" d="M204.54,208.28c0-27.75-45.79-50.25-102.27-50.25h-1.82C60.44,158.49,0,176.83,0,208.28c0,27.46,46,50.26,102.27,50.26C158.75,258.54,204.54,236,204.54,208.28Z"/><ellipse class="cls-1" cx="355.77" cy="208.28" rx="53.01" ry="26.05"/><path class="cls-1" d="M400.14,73.25q3.44.57,6.74,1c41.44,5.29,58-7.92,100.57-8.89,74.89-1.71,106.81,37.24,140.64,29.91,42.11-9.12,42.76-80.32,0-89.91C614.49-2.2,583,35,507.44,33.34,464.66,32.43,447.9,20,406.83,25.43l-.46.07Z"/><path class="cls-1" d="M572.74,50.26c0,27.75,45.78,50.26,102.27,50.26h1.81c40-.46,100.45-18.8,100.46-50.25C777.28,22.81,731.26,0,675,0,618.52,0,572.74,22.5,572.74,50.26Z"/><ellipse class="cls-1" cx="421.51" cy="50.26" rx="53.01" ry="26.05"/><path class="cls-1" d="M400.14,389.3q3.44.57,6.74,1c41.44,5.29,58-7.92,100.57-8.89,74.89-1.7,106.81,37.24,140.64,29.92,42.11-9.12,42.76-80.33,0-89.92-33.64-7.55-65.1,29.6-140.69,28-42.78-.91-59.54-13.38-100.61-7.9l-.46.06Z"/><path class="cls-1" d="M572.74,366.31c0,27.76,45.78,50.26,102.27,50.26h1.81c40-.46,100.45-18.8,100.46-50.25,0-27.45-46-50.26-102.27-50.26C618.52,316.05,572.74,338.55,572.74,366.31Z"/><ellipse class="cls-1" cx="421.51" cy="366.31" rx="53.01" ry="26.05"/><path class="cls-1" d="M236.05,163.68c2.29.38,4.55.71,6.74,1,41.44,5.28,58-7.92,100.57-8.89C418.26,154.07,450.18,193,484,185.69c42.11-9.12,42.77-80.32,0-89.92-33.63-7.55-65.09,29.61-140.69,28-42.78-.91-59.53-13.38-100.61-7.91l-.45.06Z"/><path class="cls-1" d="M408.65,140.68c0,27.76,45.79,50.26,102.27,50.26h1.82c40-.46,100.44-18.8,100.45-50.26,0-27.45-46-50.25-102.27-50.25C454.44,90.43,408.65,112.93,408.65,140.68Z"/><ellipse class="cls-1" cx="257.42" cy="140.69" rx="53.01" ry="26.05"/><path class="cls-1" d="M236.05,299.34c2.29.38,4.55.71,6.74,1,41.44,5.28,58-7.92,100.57-8.89,74.9-1.71,106.82,37.24,140.64,29.91,42.11-9.12,42.77-80.32,0-89.92-33.63-7.55-65.09,29.6-140.69,28-42.78-.91-59.53-13.38-100.61-7.91l-.45.06Z"/><path class="cls-1" d="M408.65,276.34c0,27.76,45.79,50.26,102.27,50.26h1.82c40-.45,100.44-18.79,100.45-50.25,0-27.45-46-50.25-102.27-50.25C454.44,226.09,408.65,248.59,408.65,276.34Z"/><ellipse class="cls-1" cx="257.42" cy="276.34" rx="53.01" ry="26.05"/></g></g></svg>